Radley.ufo
<glyph name="comma" format="1">
  <advance width="563"/>
  <unicode hex="002C"/>
  <outline>
    <contour>
      <point x="116" y="-268" type="curve"/>
      <point x="294" y="-265"/>
      <point x="451" y="-161"/>
      <point x="451" y="45" type="curve" smooth="yes"/>
      <point x="451" y="217"/>
      <point x="364" y="311"/>
      <point x="258" y="311" type="curve" smooth="yes"/>
      <point x="173" y="311"/>
      <point x="118" y="252"/>
      <point x="118" y="174" type="curve" smooth="yes"/>
      <point x="118" y="110"/>
      <point x="153" y="66"/>
      <point x="216" y="56" type="curve" smooth="yes"/>
      <point x="269" y="47"/>
      <point x="299" y="22"/>
      <point x="318" y="-23" type="curve"/>
      <point x="318" y="-153"/>
      <point x="202" y="-174"/>
      <point x="98" y="-208" type="curve"/>
      <point x="98" y="-236"/>
      <point x="107" y="-253"/>
    </contour>
  </outline>
</glyph>
<glyph name="slash" format="1">
  <advance width="673"/>
  <unicode hex="002F"/>
  <outline>
    <contour>
      <point x="655" y="1378" type="curve"/>
      <point x="631" y="1395"/>
      <point x="604" y="1402"/>
      <point x="575" y="1402" type="curve"/>
      <point x="514" y="1370"/>
      <point x="465" y="1160"/>
      <point x="438" y="1089" type="curve" smooth="yes"/>
      <point x="69" y="109" type="line" smooth="yes"/>
      <point x="53" y="67"/>
      <point x="40" y="24"/>
      <point x="40" y="-21" type="curve" smooth="yes"/>
      <point x="40" y="-37"/>
      <point x="41" y="-54"/>
      <point x="45" y="-70" type="curve"/>
      <point x="73" y="-70" type="line" smooth="yes"/>
      <point x="89" y="-70"/>
      <point x="105" y="-69"/>
      <point x="121" y="-65" type="curve"/>
      <point x="144" y="-15"/>
      <point x="165" y="37"/>
      <point x="183" y="89" type="curve" smooth="yes"/>
      <point x="326" y="507"/>
      <point x="539" y="965"/>
    </contour>
  </outline>
</glyph>
<glyph name="five" format="1">
  <advance width="888"/>
  <unicode hex="0035"/>
  <outline>
    <contour>
      <point x="260" y="-193" type="curve" smooth="yes"/>
      <point x="219" y="-193"/>
      <point x="105" y="-67"/>
      <point x="88" y="-67" type="curve" smooth="yes"/>
      <point x="42" y="-67"/>
      <point x="14" y="-113"/>
      <point x="14" y="-163" type="curve" smooth="yes"/>
      <point x="14" y="-201"/>
      <point x="89" y="-249"/>
      <point x="283" y="-249" type="curve" smooth="yes"/>
      <point x="581" y="-249"/>
      <point x="723" y="-64"/>
      <point x="723" y="124" type="curve" smooth="yes"/>
      <point x="723" y="342"/>
      <point x="515" y="546"/>
      <point x="218" y="546" type="curve"/>
      <point x="280" y="764" type="line"/>
      <point x="715" y="764" type="line"/>
      <point x="751" y="899" type="line"/>
      <point x="204" y="899" type="line"/>
      <point x="111" y="481" type="line"/>
      <point x="111" y="469"/>
      <point x="126" y="460"/>
      <point x="137" y="458" type="curve" smooth="yes"/>
      <point x="404" y="423"/>
      <point x="516" y="257"/>
      <point x="516" y="89" type="curve" smooth="yes"/>
      <point x="516" y="-58"/>
      <point x="442" y="-193"/>
    </contour>
  </outline>
</glyph>
<glyph name="seven" format="1">
  <advance width="856"/>
  <unicode hex="0037"/>
  <outline>
    <contour>
      <point x="457" y="-302" type="line"/>
      <point x="544" y="85"/>
      <point x="656" y="491"/>
      <point x="832" y="847" type="curve"/>
      <point x="817" y="899" type="line"/>
      <point x="84" y="899" type="line"/>
      <point x="74" y="888" type="line"/>
      <point x="51" y="553" type="line"/>
      <point x="56" y="552"/>
      <point x="65" y="549"/>
      <point x="71" y="549" type="curve" smooth="yes"/>
      <point x="150" y="549"/>
      <point x="77" y="755"/>
      <point x="256" y="767" type="curve" smooth="yes"/>
      <point x="688" y="795" type="line"/>
      <point x="499" y="509"/>
      <point x="341" y="31"/>
      <point x="247" y="-302" type="curve"/>
    </contour>
  </outline>
</glyph>
<glyph name="equal" format="1">
  <advance width="845"/>
  <unicode hex="003D"/>
  <outline>
    <contour>
      <point x="602" y="729" type="curve"/>
      <point x="227" y="729" type="line" smooth="yes"/>
      <point x="185" y="729"/>
      <point x="131" y="724"/>
      <point x="131" y="684" type="curve" smooth="yes"/>
      <point x="131" y="642"/>
      <point x="179" y="636"/>
      <point x="221" y="636" type="curve" smooth="yes"/>
      <point x="238" y="636"/>
      <point x="255" y="637"/>
      <point x="266" y="637" type="curve" smooth="yes"/>
      <point x="578" y="637" type="line" smooth="yes"/>
      <point x="590" y="637"/>
      <point x="609" y="635"/>
      <point x="629" y="635" type="curve" smooth="yes"/>
      <point x="669" y="635"/>
      <point x="713" y="642"/>
      <point x="713" y="679" type="curve" smooth="yes"/>
      <point x="713" y="725"/>
      <point x="646" y="729"/>
    </contour>
    <contour>
      <point x="602" y="487" type="curve"/>
      <point x="227" y="487" type="line" smooth="yes"/>
      <point x="185" y="487"/>
      <point x="131" y="482"/>
      <point x="131" y="442" type="curve" smooth="yes"/>
      <point x="131" y="400"/>
      <point x="179" y="394"/>
      <point x="221" y="394" type="curve" smooth="yes"/>
      <point x="238" y="394"/>
      <point x="255" y="395"/>
      <point x="266" y="395" type="curve" smooth="yes"/>
      <point x="578" y="395" type="line" smooth="yes"/>
      <point x="590" y="395"/>
      <point x="609" y="393"/>
      <point x="629" y="393" type="curve" smooth="yes"/>
      <point x="669" y="393"/>
      <point x="713" y="400"/>
      <point x="713" y="437" type="curve" smooth="yes"/>
      <point x="713" y="483"/>
      <point x="646" y="487"/>
    </contour>
  </outline>
</glyph>
<glyph name="greater" format="1">
  <advance width="626"/>
  <unicode hex="003E"/>
  <outline>
    <contour>
      <point x="147" y="18" type="curve" smooth="yes"/>
      <point x="183" y="18"/>
      <point x="202" y="29"/>
      <point x="223" y="59" type="curve" smooth="yes"/>
      <point x="562" y="553" type="line"/>
      <point x="475" y="668"/>
      <point x="265" y="996"/>
      <point x="157" y="1068" type="curve"/>
      <point x="124" y="1068"/>
      <point x="84" y="1047"/>
      <point x="84" y="1009" type="curve"/>
      <point x="154" y="855"/>
      <point x="324" y="688"/>
      <point x="431" y="553" type="curve"/>
      <point x="379" y="480"/>
      <point x="102" y="145"/>
      <point x="102" y="69" type="curve" smooth="yes"/>
      <point x="102" y="42"/>
      <point x="118" y="18"/>
    </contour>
  </outline>
</glyph>
<glyph name="at" format="1">
  <advance width="1799"/>
  <unicode hex="0040"/>
  <outline>
    <contour>
      <point x="521" y="1295"/>
      <point x="164" y="943"/>
      <point x="164" y="455" type="curve" smooth="yes"/>
      <point x="164" y="47"/>
      <point x="500" y="-157"/>
      <point x="852" y="-157" type="curve" smooth="yes"/>
      <point x="995" y="-157"/>
      <point x="1140" y="-126"/>
      <point x="1266" y="-66" type="curve"/>
      <point x="1273" y="7" type="line"/>
      <point x="1153" y="-37"/>
      <point x="1065" y="-72"/>
      <point x="888" y="-72" type="curve" smooth="yes"/>
      <point x="558" y="-72"/>
      <point x="262" y="99"/>
      <point x="262" y="445" type="curve" smooth="yes"/>
      <point x="262" y="915"/>
      <point x="581" y="1216"/>
      <point x="1012" y="1216" type="curve" smooth="yes"/>
      <point x="1264" y="1216"/>
      <point x="1536" y="1073"/>
      <point x="1536" y="646" type="curve" smooth="yes"/>
      <point x="1536" y="312"/>
      <point x="1421" y="194"/>
      <point x="1331" y="194" type="curve" smooth="yes"/>
      <point x="1272" y="194"/>
      <point x="1223" y="244"/>
      <point x="1223" y="317" type="curve" smooth="yes"/>
      <point x="1223" y="448"/>
      <point x="1249" y="544"/>
      <point x="1261" y="675" type="curve" smooth="yes"/>
      <point x="1263" y="698"/>
      <point x="1264" y="721"/>
      <point x="1264" y="743" type="curve" smooth="yes"/>
      <point x="1264" y="902"/>
      <point x="1208" y="1022"/>
      <point x="1015" y="1024" type="curve" smooth="yes"/>
      <point x="1013" y="1024"/>
      <point x="1012" y="1024"/>
      <point x="1010" y="1024" type="curve" smooth="yes"/>
      <point x="724" y="1024"/>
      <point x="505" y="752"/>
      <point x="482" y="482" type="curve" smooth="yes"/>
      <point x="481" y="469"/>
      <point x="480" y="455"/>
      <point x="480" y="442" type="curve" smooth="yes"/>
      <point x="480" y="279"/>
      <point x="571" y="134"/>
      <point x="748" y="132" type="curve" smooth="yes"/>
      <point x="749" y="132"/>
      <point x="749" y="132"/>
      <point x="750" y="132" type="curve" smooth="yes"/>
      <point x="861" y="132"/>
      <point x="983" y="206"/>
      <point x="1052" y="388" type="curve"/>
      <point x="1066" y="185"/>
      <point x="1177" y="136"/>
      <point x="1287" y="135" type="curve" smooth="yes"/>
      <point x="1288" y="135"/>
      <point x="1289" y="135"/>
      <point x="1290" y="135" type="curve" smooth="yes"/>
      <point x="1539" y="135"/>
      <point x="1639" y="433"/>
      <point x="1639" y="647" type="curve" smooth="yes"/>
      <point x="1639" y="1063"/>
      <point x="1372" y="1295"/>
      <point x="1015" y="1295" type="curve" smooth="yes"/>
    </contour>
    <contour>
      <point x="1072" y="587"/>
      <point x="1070" y="601"/>
      <point x="1047" y="484" type="curve"/>
      <point x="986" y="318"/>
      <point x="884" y="229"/>
      <point x="796" y="229" type="curve" smooth="yes"/>
      <point x="687" y="231"/>
      <point x="638" y="332"/>
      <point x="638" y="446" type="curve" smooth="yes"/>
      <point x="638" y="457"/>
      <point x="638" y="467"/>
      <point x="639" y="478" type="curve" smooth="yes"/>
      <point x="657" y="680"/>
      <point x="808" y="945"/>
      <point x="985" y="945" type="curve" smooth="yes"/>
      <point x="986" y="945"/>
      <point x="986" y="945"/>
      <point x="987" y="945" type="curve" smooth="yes"/>
      <point x="1071" y="944"/>
      <point x="1088" y="872"/>
      <point x="1088" y="801" type="curve" smooth="yes"/>
      <point x="1088" y="766"/>
      <point x="1084" y="731"/>
      <point x="1082" y="705" type="curve" smooth="yes"/>
    </contour>
  </outline>
</glyph>
<glyph name="A" format="1">
  <advance width="1376"/>
  <unicode hex="0041"/>
  <outline>
    <contour>
      <point x="692" y="1302" type="move" name="top"/>
    </contour>
    <contour>
      <point x="430" y="620" type="line"/>
      <point x="613" y="1112" type="line"/>
      <point x="810" y="620" type="line"/>
    </contour>
    <contour>
      <point x="968" y="180" type="curve" smooth="yes"/>
      <point x="968" y="101"/>
      <point x="860" y="70"/>
      <point x="800" y="52" type="curve"/>
      <point x="802" y="0" type="line"/>
      <point x="1384" y="0" type="line"/>
      <point x="1386" y="52" type="line"/>
      <point x="1314" y="90"/>
      <point x="1250" y="86"/>
      <point x="1213" y="176" type="curve" smooth="yes"/>
      <point x="754" y="1277" type="line"/>
      <point x="704" y="1315"/>
      <point x="659" y="1324"/>
      <point x="598" y="1324" type="curve"/>
      <point x="579" y="1299"/>
      <point x="589" y="1258"/>
      <point x="579" y="1231" type="curve" smooth="yes"/>
      <point x="205" y="273" type="line" smooth="yes"/>
      <point x="190" y="236"/>
      <point x="177" y="198"/>
      <point x="159" y="163" type="curve" smooth="yes"/>
      <point x="118" y="85"/>
      <point x="53" y="97"/>
      <point x="-1" y="52" type="curve"/>
      <point x="-1" y="0" type="line"/>
      <point x="471" y="0" type="line"/>
      <point x="471" y="57" type="line"/>
      <point x="452" y="61" type="line" smooth="yes"/>
      <point x="385" y="75"/>
      <point x="280" y="96"/>
      <point x="280" y="175" type="curve" smooth="yes"/>
      <point x="280" y="253"/>
      <point x="376" y="477"/>
      <point x="396" y="532" type="curve"/>
      <point x="847" y="532" type="line"/>
      <point x="869" y="472"/>
      <point x="968" y="227"/>
    </contour>
  </outline>
</glyph>
<glyph name="N" format="1">
  <advance width="1724"/>
  <unicode hex="004E"/>
  <outline>
    <contour>
      <point x="862" y="1302" type="move" name="top"/>
    </contour>
    <contour>
      <point x="78" y="54" type="curve"/>
      <point x="78" y="36"/>
      <point x="78" y="18"/>
      <point x="80" y="0" type="curve"/>
      <point x="644" y="0" type="line"/>
      <point x="646" y="18"/>
      <point x="647" y="35"/>
      <point x="647" y="53" type="curve"/>
      <point x="571" y="92"/>
      <point x="447" y="65"/>
      <point x="420" y="172" type="curve" smooth="yes"/>
      <point x="409" y="216"/>
      <point x="403" y="262"/>
      <point x="403" y="307" type="curve" smooth="yes"/>
      <point x="403" y="1009" type="line"/>
      <point x="1193" y="178" type="line" smooth="yes"/>
      <point x="1250" y="117"/>
      <point x="1305" y="55"/>
      <point x="1357" y="-9" type="curve"/>
      <point x="1375" y="-14"/>
      <point x="1395" y="-16"/>
      <point x="1414" y="-16" type="curve" smooth="yes"/>
      <point x="1430" y="-16"/>
      <point x="1447" y="-15"/>
      <point x="1463" y="-9" type="curve"/>
      <point x="1460" y="112"/>
      <point x="1440" y="231"/>
      <point x="1440" y="353" type="curve" smooth="yes"/>
      <point x="1440" y="555"/>
      <point x="1443" y="757"/>
      <point x="1445" y="959" type="curve" smooth="yes"/>
      <point x="1447" y="1184"/>
      <point x="1478" y="1167"/>
      <point x="1656" y="1248" type="curve"/>
      <point x="1656" y="1302" type="line"/>
      <point x="1129" y="1302" type="line"/>
      <point x="1127" y="1284"/>
      <point x="1126" y="1267"/>
      <point x="1126" y="1249" type="curve"/>
      <point x="1202" y="1211"/>
      <point x="1297" y="1230"/>
      <point x="1331" y="1131" type="curve" smooth="yes"/>
      <point x="1351" y="1073"/>
      <point x="1358" y="1019"/>
      <point x="1358" y="958" type="curve" smooth="yes"/>
      <point x="1358" y="329" type="line"/>
      <point x="417" y="1302" type="line"/>
      <point x="68" y="1302" type="line"/>
      <point x="68" y="1250" type="line"/>
      <point x="178" y="1205"/>
      <point x="252" y="1208"/>
      <point x="323" y="1091" type="curve"/>
      <point x="323" y="239" type="line"/>
      <point x="310" y="92"/>
      <point x="189" y="85"/>
    </contour>
  </outline>
</glyph>
<glyph name="P" format="1">
  <advance width="1305"/>
  <unicode hex="0050"/>
  <outline>
    <contour>
      <point x="280" y="222" type="line" smooth="yes"/>
      <point x="280" y="96"/>
      <point x="164" y="80"/>
      <point x="68" y="52" type="curve"/>
      <point x="71" y="0" type="line"/>
      <point x="721" y="0" type="line"/>
      <point x="723" y="52" type="line"/>
      <point x="559" y="117"/>
      <point x="496" y="33"/>
      <point x="496" y="275" type="curve" smooth="yes"/>
      <point x="496" y="1227" type="line"/>
      <point x="528" y="1230"/>
      <point x="561" y="1232"/>
      <point x="593" y="1232" type="curve" smooth="yes"/>
      <point x="791" y="1232"/>
      <point x="1014" y="1161"/>
      <point x="1014" y="925" type="curve" smooth="yes"/>
      <point x="1014" y="670"/>
      <point x="850" y="632"/>
      <point x="637" y="632" type="curve" smooth="yes"/>
      <point x="622" y="632" type="line" smooth="yes"/>
      <point x="604" y="632"/>
      <point x="578" y="630"/>
      <point x="578" y="614" type="curve" smooth="yes"/>
      <point x="578" y="569"/>
      <point x="753" y="548"/>
      <point x="786" y="548" type="curve" smooth="yes"/>
      <point x="1033" y="548"/>
      <point x="1247" y="668"/>
      <point x="1247" y="939" type="curve" smooth="yes"/>
      <point x="1247" y="1292"/>
      <point x="837" y="1302"/>
      <point x="567" y="1302" type="curve" smooth="yes"/>
      <point x="71" y="1302" type="line"/>
      <point x="69" y="1251" type="line"/>
      <point x="215" y="1189"/>
      <point x="280" y="1235"/>
      <point x="280" y="1031" type="curve" smooth="yes"/>
    </contour>
  </outline>
</glyph>
<glyph name="Y" format="1">
  <advance width="1345"/>
  <unicode hex="0059"/>
  <outline>
    <contour>
      <point x="669" y="1302" type="move" name="top"/>
    </contour>
    <contour>
      <point x="1341" y="1250" type="line"/>
      <point x="1341" y="1302" type="line"/>
      <point x="839" y="1302" type="line"/>
      <point x="838" y="1291"/>
      <point x="837" y="1282"/>
      <point x="837" y="1273" type="curve" smooth="yes"/>
      <point x="839" y="1246" type="line"/>
      <point x="891" y="1230"/>
      <point x="1004" y="1211"/>
      <point x="1004" y="1140" type="curve" smooth="yes"/>
      <point x="1004" y="1037"/>
      <point x="771" y="711"/>
      <point x="744" y="667" type="curve"/>
      <point x="699" y="738"/>
      <point x="459" y="1081"/>
      <point x="459" y="1142" type="curve" smooth="yes"/>
      <point x="459" y="1211"/>
      <point x="567" y="1241"/>
      <point x="620" y="1250" type="curve"/>
      <point x="618" y="1302" type="line"/>
      <point x="-2" y="1302" type="line"/>
      <point x="-2" y="1251" type="line"/>
      <point x="56" y="1238"/>
      <point x="162" y="1185"/>
      <point x="195" y="1134" type="curve" smooth="yes"/>
      <point x="560" y="562" type="line"/>
      <point x="560" y="254" type="line" smooth="yes"/>
      <point x="560" y="25"/>
      <point x="465" y="121"/>
      <point x="342" y="52" type="curve"/>
      <point x="344" y="0" type="line"/>
      <point x="990" y="0" type="line"/>
      <point x="992" y="52" type="line"/>
      <point x="864" y="111"/>
      <point x="775" y="41"/>
      <point x="775" y="246" type="curve" smooth="yes"/>
      <point x="775" y="583" type="line"/>
      <point x="1103" y="1086" type="line" smooth="yes"/>
      <point x="1161" y="1175"/>
      <point x="1234" y="1206"/>
      <point x="1324" y="1243" type="curve" smooth="yes"/>
    </contour>
  </outline>
</glyph>
<glyph name="underscore" format="1">
  <advance width="935"/>
  <unicode hex="005F"/>
  <outline>
    <contour>
      <point x="893" y="-129" type="curve"/>
      <point x="893" y="-88"/>
      <point x="872" y="-65"/>
      <point x="835" y="-49" type="curve"/>
      <point x="196" y="-49" type="line" smooth="yes"/>
      <point x="147" y="-49"/>
      <point x="89" y="-49"/>
      <point x="44" y="-68" type="curve"/>
      <point x="44" y="-112"/>
      <point x="63" y="-131"/>
      <point x="102" y="-147" type="curve"/>
      <point x="768" y="-147" type="line" smooth="yes"/>
      <point x="810" y="-147"/>
      <point x="859" y="-145"/>
    </contour>
  </outline>
</glyph>
<glyph name="b" format="1">
  <advance width="1134"/>
  <unicode hex="0062"/>
  <outline>
    <contour>
      <point x="344" y="665" type="line"/>
      <point x="400" y="733"/>
      <point x="497" y="794"/>
      <point x="599" y="794" type="curve" smooth="yes"/>
      <point x="768" y="794"/>
      <point x="871" y="639"/>
      <point x="866" y="412" type="curve" smooth="yes"/>
      <point x="860" y="139"/>
      <point x="686" y="58"/>
      <point x="538" y="58" type="curve" smooth="yes"/>
      <point x="433" y="58"/>
      <point x="344" y="85"/>
      <point x="344" y="124" type="curve" smooth="yes"/>
    </contour>
    <contour>
      <point x="158" y="134" type="line" smooth="yes"/>
      <point x="158" y="48"/>
      <point x="339" y="-20"/>
      <point x="528" y="-20" type="curve" smooth="yes"/>
      <point x="778" y="-20"/>
      <point x="1052" y="95"/>
      <point x="1052" y="462" type="curve" smooth="yes"/>
      <point x="1052" y="691"/>
      <point x="914" y="926"/>
      <point x="677" y="926" type="curve" smooth="yes"/>
      <point x="545" y="926"/>
      <point x="436" y="857"/>
      <point x="344" y="758" type="curve"/>
      <point x="344" y="1376" type="line"/>
      <point x="258" y="1367" type="line"/>
      <point x="-28" y="1288" type="line"/>
      <point x="-30" y="1254" type="line"/>
      <point x="-30" y="1254"/>
      <point x="130" y="1208"/>
      <point x="158" y="1163" type="curve"/>
    </contour>
  </outline>
</glyph>
<glyph name="g" format="1">
  <advance width="1001"/>
  <unicode hex="0067"/>
  <outline>
    <contour>
      <point x="557" y="1" type="line" smooth="yes"/>
      <point x="727" y="-3"/>
      <point x="800" y="-48"/>
      <point x="800" y="-118" type="curve" smooth="yes"/>
      <point x="800" y="-223"/>
      <point x="599" y="-268"/>
      <point x="465" y="-268" type="curve" smooth="yes"/>
      <point x="382" y="-268"/>
      <point x="203" y="-242"/>
      <point x="203" y="-137" type="curve" smooth="yes"/>
      <point x="203" y="-94"/>
      <point x="230" y="-45"/>
      <point x="300" y="15" type="curve"/>
      <point x="363" y="8"/>
      <point x="414" y="4"/>
      <point x="472" y="3" type="curve" smooth="yes"/>
    </contour>
    <contour>
      <point x="285" y="764"/>
      <point x="356" y="852"/>
      <point x="446" y="852" type="curve" smooth="yes"/>
      <point x="551" y="852"/>
      <point x="634" y="763"/>
      <point x="634" y="597" type="curve" smooth="yes"/>
      <point x="634" y="466"/>
      <point x="586" y="374"/>
      <point x="474" y="374" type="curve" smooth="yes"/>
      <point x="343" y="374"/>
      <point x="285" y="491"/>
      <point x="285" y="634" type="curve" smooth="yes"/>
    </contour>
    <contour>
      <point x="938" y="918" type="line"/>
      <point x="938" y="918"/>
      <point x="914" y="922"/>
      <point x="891" y="922" type="curve" smooth="yes"/>
      <point x="800" y="922"/>
      <point x="674" y="873"/>
      <point x="674" y="873" type="curve"/>
      <point x="611" y="906"/>
      <point x="539" y="926"/>
      <point x="454" y="926" type="curve" smooth="yes"/>
      <point x="253" y="926"/>
      <point x="107" y="796"/>
      <point x="107" y="613" type="curve" smooth="yes"/>
      <point x="107" y="498"/>
      <point x="169" y="410"/>
      <point x="272" y="352" type="curve"/>
      <point x="177" y="297"/>
      <point x="107" y="239"/>
      <point x="107" y="163" type="curve" smooth="yes"/>
      <point x="107" y="103"/>
      <point x="153" y="54"/>
      <point x="226" y="24" type="curve"/>
      <point x="116" y="-57"/>
      <point x="73" y="-128"/>
      <point x="73" y="-184" type="curve" smooth="yes"/>
      <point x="73" y="-263"/>
      <point x="201" y="-351"/>
      <point x="439" y="-351" type="curve" smooth="yes"/>
      <point x="708" y="-351"/>
      <point x="936" y="-238"/>
      <point x="936" y="-52" type="curve" smooth="yes"/>
      <point x="936" y="87"/>
      <point x="814" y="159"/>
      <point x="653" y="171" type="curve" smooth="yes"/>
      <point x="401" y="189"/>
      <point x="256" y="174"/>
      <point x="256" y="243" type="curve" smooth="yes"/>
      <point x="256" y="292"/>
      <point x="296" y="302"/>
      <point x="327" y="326" type="curve"/>
      <point x="379" y="314"/>
      <point x="417" y="308"/>
      <point x="455" y="308" type="curve" smooth="yes"/>
      <point x="627" y="308"/>
      <point x="809" y="415"/>
      <point x="809" y="626" type="curve" smooth="yes"/>
      <point x="809" y="714"/>
      <point x="730" y="803"/>
      <point x="730" y="803" type="curve"/>
      <point x="730" y="803"/>
      <point x="807" y="812"/>
      <point x="871" y="812" type="curve" smooth="yes"/>
      <point x="900" y="812"/>
      <point x="927" y="810"/>
      <point x="943" y="805" type="curve"/>
    </contour>
    <contour>
      <point x="505" y="900" type="move" name="top"/>
    </contour>
  </outline>
</glyph>
<glyph name="h" format="1">
  <advance width="1217"/>
  <unicode hex="0068"/>
  <outline>
    <contour>
      <point x="1039" y="568" type="line" smooth="yes"/>
      <point x="1039" y="821"/>
      <point x="906" y="926"/>
      <point x="732" y="926" type="curve" smooth="yes"/>
      <point x="589" y="926"/>
      <point x="496" y="862"/>
      <point x="401" y="768" type="curve"/>
      <point x="401" y="1376" type="line"/>
      <point x="330" y="1369" type="line"/>
      <point x="44" y="1293" type="line"/>
      <point x="44" y="1258" type="line"/>
      <point x="80" y="1253"/>
      <point x="193" y="1196"/>
      <point x="215" y="1164" type="curve"/>
      <point x="215" y="233" type="line" smooth="yes"/>
      <point x="215" y="115"/>
      <point x="152" y="59"/>
      <point x="40" y="50" type="curve"/>
      <point x="40" y="34"/>
      <point x="42" y="0"/>
      <point x="42" y="0" type="curve"/>
      <point x="575" y="0" type="line"/>
      <point x="575" y="0"/>
      <point x="576" y="34"/>
      <point x="576" y="50" type="curve"/>
      <point x="453" y="62"/>
      <point x="401" y="112"/>
      <point x="401" y="233" type="curve" smooth="yes"/>
      <point x="401" y="684" type="line"/>
      <point x="466" y="752"/>
      <point x="558" y="818"/>
      <point x="661" y="818" type="curve" smooth="yes"/>
      <point x="801" y="818"/>
      <point x="853" y="713"/>
      <point x="853" y="577" type="curve" smooth="yes"/>
      <point x="853" y="214" type="line" smooth="yes"/>
      <point x="853" y="66"/>
      <point x="801" y="96"/>
      <point x="695" y="50" type="curve"/>
      <point x="695" y="34"/>
      <point x="697" y="0"/>
      <point x="697" y="0" type="curve"/>
      <point x="1189" y="0" type="line"/>
      <point x="1189" y="0"/>
      <point x="1191" y="34"/>
      <point x="1191" y="50" type="curve"/>
      <point x="1094" y="59"/>
      <point x="1039" y="117"/>
      <point x="1039" y="221" type="curve" smooth="yes"/>
    </contour>
  </outline>
</glyph>
<glyph name="i" format="1">
  <advance width="594"/>
  <unicode hex="0069"/>
  <outline>
    <contour>
      <point x="177" y="1260" type="curve" smooth="yes"/>
      <point x="177" y="1195"/>
      <point x="228" y="1144"/>
      <point x="293" y="1144" type="curve" smooth="yes"/>
      <point x="357" y="1144"/>
      <point x="409" y="1195"/>
      <point x="409" y="1260" type="curve" smooth="yes"/>
      <point x="409" y="1324"/>
      <point x="357" y="1376"/>
      <point x="293" y="1376" type="curve" smooth="yes"/>
      <point x="228" y="1376"/>
      <point x="177" y="1324"/>
    </contour>
    <contour>
      <point x="213" y="181" type="line" smooth="yes"/>
      <point x="213" y="83"/>
      <point x="121" y="72"/>
      <point x="49" y="50" type="curve"/>
      <point x="49" y="34"/>
      <point x="49" y="18"/>
      <point x="51" y="0" type="curve"/>
      <point x="573" y="0" type="line"/>
      <point x="574" y="17"/>
      <point x="574" y="33"/>
      <point x="574" y="50" type="curve"/>
      <point x="391" y="69"/>
      <point x="399" y="188"/>
      <point x="399" y="220" type="curve" smooth="yes"/>
      <point x="399" y="918" type="line"/>
      <point x="337" y="914" type="line"/>
      <point x="56" y="846" type="line"/>
      <point x="54" y="811" type="line"/>
      <point x="54" y="811"/>
      <point x="183" y="778"/>
      <point x="213" y="727" type="curve"/>
    </contour>
  </outline>
</glyph>
<glyph name="j" format="1">
  <advance width="553"/>
  <unicode hex="006A"/>
  <outline>
    <contour>
      <point x="165" y="1260" type="curve" smooth="yes"/>
      <point x="165" y="1195"/>
      <point x="216" y="1144"/>
      <point x="280" y="1144" type="curve" smooth="yes"/>
      <point x="345" y="1144"/>
      <point x="396" y="1195"/>
      <point x="396" y="1260" type="curve" smooth="yes"/>
      <point x="396" y="1324"/>
      <point x="345" y="1376"/>
      <point x="280" y="1376" type="curve" smooth="yes"/>
      <point x="216" y="1376"/>
      <point x="165" y="1324"/>
    </contour>
    <contour>
      <point x="201" y="88" type="line"/>
      <point x="190" y="-136"/>
      <point x="163" y="-176"/>
      <point x="-1" y="-250" type="curve"/>
      <point x="14" y="-308" type="line"/>
      <point x="251" y="-282"/>
      <point x="387" y="-168"/>
      <point x="387" y="125" type="curve" smooth="yes"/>
      <point x="387" y="918" type="line"/>
      <point x="319" y="913" type="line"/>
      <point x="39" y="846" type="line"/>
      <point x="39" y="811" type="line"/>
      <point x="49" y="811"/>
      <point x="171" y="778"/>
      <point x="201" y="728" type="curve"/>
    </contour>
  </outline>
</glyph>
<glyph name="k" format="1">
  <advance width="1169"/>
  <unicode hex="006B"/>
  <outline>
    <contour>
      <point x="596" y="0"/>
      <point x="598" y="33"/>
      <point x="598" y="50" type="curve"/>
      <point x="487" y="61"/>
      <point x="422" y="101"/>
      <point x="422" y="222" type="curve"/>
      <point x="422" y="420" type="line"/>
      <point x="507" y="420" type="line"/>
      <point x="740" y="119" type="line"/>
      <point x="751" y="107"/>
      <point x="753" y="99"/>
      <point x="753" y="96" type="curve" smooth="yes"/>
      <point x="753" y="81"/>
      <point x="741" y="52"/>
      <point x="653" y="52" type="curve" smooth="yes"/>
      <point x="651" y="52"/>
      <point x="658" y="0"/>
      <point x="658" y="0" type="curve"/>
      <point x="1153" y="0" type="line"/>
      <point x="1154" y="10"/>
      <point x="1156" y="53"/>
      <point x="1156" y="53" type="curve" smooth="yes"/>
      <point x="1140" y="53"/>
      <point x="1000" y="69"/>
      <point x="930" y="160" type="curve" smooth="yes"/>
      <point x="666" y="502" type="line"/>
      <point x="942" y="785" type="line" smooth="yes"/>
      <point x="962" y="802"/>
      <point x="995" y="818"/>
      <point x="1044" y="828" type="curve" smooth="yes"/>
      <point x="1097" y="839"/>
      <point x="1127" y="851"/>
      <point x="1127" y="866" type="curve"/>
      <point x="1124" y="899" type="line"/>
      <point x="700" y="899" type="line"/>
      <point x="698" y="886"/>
      <point x="697" y="873"/>
      <point x="697" y="866" type="curve" smooth="yes"/>
      <point x="697" y="824"/>
      <point x="826" y="863"/>
      <point x="826" y="800" type="curve" smooth="yes"/>
      <point x="826" y="798"/>
      <point x="826" y="794"/>
      <point x="824" y="789" type="curve"/>
      <point x="504" y="475" type="line"/>
      <point x="422" y="475" type="line"/>
      <point x="422" y="1376" type="line"/>
      <point x="351" y="1369" type="line"/>
      <point x="65" y="1293" type="line"/>
      <point x="65" y="1258" type="line"/>
      <point x="101" y="1253"/>
      <point x="214" y="1196"/>
      <point x="236" y="1164" type="curve"/>
      <point x="236" y="185" type="line"/>
      <point x="236" y="89"/>
      <point x="171" y="75"/>
      <point x="81" y="54" type="curve"/>
      <point x="80" y="48"/>
      <point x="80" y="40"/>
      <point x="80" y="32" type="curve" smooth="yes"/>
      <point x="80" y="16"/>
      <point x="81" y="0"/>
      <point x="81" y="0" type="curve"/>
      <point x="596" y="0" type="line"/>
    </contour>
  </outline>
</glyph>
<glyph name="q" format="1">
  <advance width="1132"/>
  <unicode hex="0071"/>
  <outline>
    <contour>
      <point x="789" y="236" type="line"/>
      <point x="701" y="149"/>
      <point x="627" y="113"/>
      <point x="546" y="113" type="curve" smooth="yes"/>
      <point x="389" y="113"/>
      <point x="263" y="257"/>
      <point x="263" y="495" type="curve" smooth="yes"/>
      <point x="263" y="701"/>
      <point x="360" y="853"/>
      <point x="525" y="853" type="curve" smooth="yes"/>
      <point x="682" y="853"/>
      <point x="772" y="759"/>
      <point x="789" y="624" type="curve"/>
    </contour>
    <contour>
      <point x="790" y="-186" type="line" smooth="yes"/>
      <point x="790" y="-295"/>
      <point x="675" y="-305"/>
      <point x="608" y="-329" type="curve"/>
      <point x="608" y="-344"/>
      <point x="610" y="-378"/>
      <point x="610" y="-378" type="curve"/>
      <point x="1127" y="-378" type="line"/>
      <point x="1127" y="-378"/>
      <point x="1129" y="-345"/>
      <point x="1129" y="-329" type="curve"/>
      <point x="1013" y="-309"/>
      <point x="975" y="-250"/>
      <point x="975" y="-138" type="curve" smooth="yes"/>
      <point x="975" y="898" type="line" smooth="yes"/>
      <point x="975" y="915"/>
      <point x="970" y="926"/>
      <point x="954" y="926" type="curve" smooth="yes"/>
      <point x="926" y="926"/>
      <point x="877" y="910"/>
      <point x="867" y="885" type="curve"/>
      <point x="867" y="848" type="line"/>
      <point x="772" y="896"/>
      <point x="664" y="924"/>
      <point x="548" y="924" type="curve" smooth="yes"/>
      <point x="282" y="924"/>
      <point x="82" y="752"/>
      <point x="82" y="432" type="curve" smooth="yes"/>
      <point x="82" y="197"/>
      <point x="229" y="-22"/>
      <point x="474" y="-22" type="curve" smooth="yes"/>
      <point x="582" y="-22"/>
      <point x="674" y="23"/>
      <point x="790" y="144" type="curve"/>
    </contour>
  </outline>
</glyph>
<glyph name="r" format="1">
  <advance width="799"/>
  <unicode hex="0072"/>
  <outline>
    <contour>
      <point x="384" y="633" type="line"/>
      <point x="430" y="709"/>
      <point x="471" y="794"/>
      <point x="547" y="794" type="curve" smooth="yes"/>
      <point x="609" y="794"/>
      <point x="604" y="692"/>
      <point x="692" y="692" type="curve" smooth="yes"/>
      <point x="753" y="692"/>
      <point x="778" y="783"/>
      <point x="778" y="811" type="curve" smooth="yes"/>
      <point x="778" y="862"/>
      <point x="719" y="921"/>
      <point x="636" y="921" type="curve" smooth="yes"/>
      <point x="536" y="921"/>
      <point x="458" y="873"/>
      <point x="381" y="732" type="curve"/>
      <point x="365" y="916" type="line"/>
      <point x="308" y="916" type="line"/>
      <point x="42" y="845" type="line"/>
      <point x="40" y="810" type="line"/>
      <point x="40" y="810"/>
      <point x="169" y="778"/>
      <point x="198" y="728" type="curve"/>
      <point x="198" y="225" type="line" smooth="yes"/>
      <point x="198" y="80"/>
      <point x="156" y="86"/>
      <point x="43" y="54" type="curve"/>
      <point x="42" y="51"/>
      <point x="43" y="0"/>
      <point x="43" y="0" type="curve"/>
      <point x="564" y="0" type="line"/>
      <point x="564" y="0"/>
      <point x="565" y="33"/>
      <point x="565" y="50" type="curve"/>
      <point x="392" y="60"/>
      <point x="384" y="161"/>
      <point x="384" y="231" type="curve" smooth="yes"/>
    </contour>
    <contour>
      <point x="409" y="900" type="move" name="top"/>
    </contour>
  </outline>
</glyph>
<glyph name="v" format="1">
  <advance width="987"/>
  <unicode hex="0076"/>
  <outline>
    <contour>
      <point x="794" y="706" type="line"/>
      <point x="845" y="821"/>
      <point x="909" y="818"/>
      <point x="956" y="848" type="curve"/>
      <point x="956" y="866"/>
      <point x="956" y="882"/>
      <point x="954" y="899" type="curve"/>
      <point x="582" y="899" type="line"/>
      <point x="582" y="899"/>
      <point x="581" y="883"/>
      <point x="581" y="866" type="curve" smooth="yes"/>
      <point x="581" y="858"/>
      <point x="581" y="849"/>
      <point x="582" y="843" type="curve"/>
      <point x="661" y="824"/>
      <point x="708" y="805"/>
      <point x="712" y="755" type="curve"/>
      <point x="712" y="728"/>
      <point x="699" y="686"/>
      <point x="684" y="649" type="curve" smooth="yes"/>
      <point x="512" y="230" type="line"/>
      <point x="308" y="733" type="line"/>
      <point x="305" y="743"/>
      <point x="303" y="752"/>
      <point x="303" y="760" type="curve" smooth="yes"/>
      <point x="303" y="810"/>
      <point x="365" y="827"/>
      <point x="432" y="845" type="curve"/>
      <point x="432" y="860"/>
      <point x="428" y="882"/>
      <point x="427" y="899" type="curve"/>
      <point x="-23" y="899" type="line"/>
      <point x="-23" y="847" type="line"/>
      <point x="50" y="813"/>
      <point x="70" y="840"/>
      <point x="118" y="724" type="curve" smooth="yes"/>
      <point x="424" y="-12" type="line"/>
      <point x="431" y="-16"/>
      <point x="441" y="-18"/>
      <point x="454" y="-18" type="curve" smooth="yes"/>
      <point x="466" y="-18"/>
      <point x="476" y="-16"/>
      <point x="484" y="-12" type="curve"/>
    </contour>
  </outline>
</glyph>
<glyph name="braceleft" format="1">
  <advance width="827"/>
  <unicode hex="007B"/>
  <outline>
    <contour>
      <point x="191" y="619" type="curve"/>
      <point x="288" y="547"/>
      <point x="401" y="583"/>
      <point x="401" y="406" type="curve" smooth="yes"/>
      <point x="401" y="310"/>
      <point x="376" y="216"/>
      <point x="376" y="120" type="curve" smooth="yes"/>
      <point x="376" y="-101"/>
      <point x="507" y="-220"/>
      <point x="724" y="-233" type="curve"/>
      <point x="729" y="-225"/>
      <point x="732" y="-215"/>
      <point x="732" y="-205" type="curve" smooth="yes"/>
      <point x="732" y="-194"/>
      <point x="729" y="-184"/>
      <point x="724" y="-176" type="curve"/>
      <point x="626" y="-160"/>
      <point x="530" y="-117"/>
      <point x="530" y="-4" type="curve" smooth="yes"/>
      <point x="530" y="97"/>
      <point x="574" y="194"/>
      <point x="574" y="297" type="curve" smooth="yes"/>
      <point x="574" y="468"/>
      <point x="462" y="585"/>
      <point x="304" y="632" type="curve"/>
      <point x="463" y="680"/>
      <point x="574" y="794"/>
      <point x="574" y="967" type="curve" smooth="yes"/>
      <point x="574" y="1067"/>
      <point x="532" y="1162"/>
      <point x="532" y="1261" type="curve" smooth="yes"/>
      <point x="532" y="1382"/>
      <point x="615" y="1425"/>
      <point x="724" y="1440" type="curve"/>
      <point x="727" y="1448"/>
      <point x="729" y="1458"/>
      <point x="729" y="1467" type="curve" smooth="yes"/>
      <point x="729" y="1477"/>
      <point x="727" y="1488"/>
      <point x="724" y="1497" type="curve"/>
      <point x="518" y="1484"/>
      <point x="375" y="1372"/>
      <point x="375" y="1157" type="curve" smooth="yes"/>
      <point x="375" y="1061"/>
      <point x="403" y="967"/>
      <point x="403" y="871" type="curve" smooth="yes"/>
      <point x="403" y="752"/>
      <point x="332" y="677"/>
      <point x="213" y="667" type="curve"/>
      <point x="197" y="657"/>
      <point x="191" y="637"/>
    </contour>
  </outline>
</glyph>
<glyph name="currency" format="1">
  <advance width="1188"/>
  <unicode hex="00A4"/>
  <outline>
    <contour>
      <point x="331" y="721" type="curve" smooth="yes"/>
      <point x="331" y="865"/>
      <point x="450" y="983"/>
      <point x="594" y="983" type="curve" smooth="yes"/>
      <point x="750" y="983"/>
      <point x="857" y="859"/>
      <point x="857" y="707" type="curve" smooth="yes"/>
      <point x="857" y="562"/>
      <point x="738" y="445"/>
      <point x="594" y="445" type="curve" smooth="yes"/>
      <point x="437" y="445"/>
      <point x="331" y="568"/>
    </contour>
    <contour>
      <point x="817" y="1044" type="curve"/>
      <point x="748" y="1087"/>
      <point x="675" y="1109"/>
      <point x="594" y="1109" type="curve" smooth="yes"/>
      <point x="514" y="1109"/>
      <point x="437" y="1084"/>
      <point x="369" y="1042" type="curve"/>
      <point x="333" y="1087"/>
      <point x="280" y="1160"/>
      <point x="230" y="1190" type="curve"/>
      <point x="196" y="1170"/>
      <point x="166" y="1141"/>
      <point x="142" y="1110" type="curve"/>
      <point x="174" y="1055"/>
      <point x="234" y="1007"/>
      <point x="275" y="958" type="curve"/>
      <point x="220" y="885"/>
      <point x="191" y="805"/>
      <point x="191" y="713" type="curve" smooth="yes"/>
      <point x="191" y="619"/>
      <point x="220" y="541"/>
      <point x="277" y="467" type="curve"/>
      <point x="234" y="419"/>
      <point x="185" y="371"/>
      <point x="149" y="317" type="curve"/>
      <point x="169" y="283"/>
      <point x="198" y="255"/>
      <point x="231" y="233" type="curve"/>
      <point x="293" y="268"/>
      <point x="329" y="327"/>
      <point x="373" y="382" type="curve"/>
      <point x="441" y="341"/>
      <point x="517" y="318"/>
      <point x="596" y="318" type="curve" smooth="yes"/>
      <point x="677" y="318"/>
      <point x="754" y="340"/>
      <point x="822" y="384" type="curve"/>
      <point x="858" y="340"/>
      <point x="911" y="267"/>
      <point x="959" y="238" type="curve"/>
      <point x="993" y="258"/>
      <point x="1023" y="286"/>
      <point x="1046" y="318" type="curve"/>
      <point x="1015" y="373"/>
      <point x="955" y="421"/>
      <point x="914" y="470" type="curve"/>
      <point x="970" y="544"/>
      <point x="998" y="621"/>
      <point x="998" y="714" type="curve" smooth="yes"/>
      <point x="998" y="806"/>
      <point x="968" y="887"/>
      <point x="912" y="959" type="curve"/>
      <point x="954" y="1007"/>
      <point x="1005" y="1055"/>
      <point x="1039" y="1109" type="curve"/>
      <point x="1019" y="1143"/>
      <point x="991" y="1173"/>
      <point x="957" y="1194" type="curve"/>
      <point x="897" y="1157"/>
      <point x="860" y="1098"/>
    </contour>
  </outline>
</glyph>
<glyph name="section" format="1">
  <advance width="856"/>
  <unicode hex="00A7"/>
  <outline>
    <contour>
      <point x="234" y="1043" type="curve"/>
      <point x="403" y="846"/>
      <point x="659" y="523"/>
      <point x="659" y="255" type="curve" smooth="yes"/>
      <point x="659" y="204"/>
      <point x="649" y="153"/>
      <point x="626" y="107" type="curve"/>
      <point x="624" y="110" type="line"/>
      <point x="513" y="390"/>
      <point x="187" y="517"/>
      <point x="187" y="872" type="curve" smooth="yes"/>
      <point x="187" y="928"/>
      <point x="203" y="997"/>
    </contour>
    <contour>
      <point x="195" y="1073" type="curve"/>
      <point x="145" y="975"/>
      <point x="112" y="867"/>
      <point x="112" y="757" type="curve" smooth="yes"/>
      <point x="112" y="344"/>
      <point x="605" y="203"/>
      <point x="605" y="-30" type="curve" smooth="yes"/>
      <point x="605" y="-121"/>
      <point x="503" y="-149"/>
      <point x="429" y="-149" type="curve" smooth="yes"/>
      <point x="212" y="-149"/>
      <point x="272" y="31"/>
      <point x="175" y="31" type="curve" smooth="yes"/>
      <point x="135" y="31"/>
      <point x="105" y="8"/>
      <point x="105" y="-34" type="curve" smooth="yes"/>
      <point x="105" y="-187"/>
      <point x="316" y="-222"/>
      <point x="432" y="-222" type="curve" smooth="yes"/>
      <point x="548" y="-222"/>
      <point x="683" y="-152"/>
      <point x="683" y="-21" type="curve" smooth="yes"/>
      <point x="683" y="13"/>
      <point x="673" y="46"/>
      <point x="658" y="76" type="curve"/>
      <point x="711" y="169"/>
      <point x="744" y="274"/>
      <point x="744" y="381" type="curve" smooth="yes"/>
      <point x="744" y="830"/>
      <point x="261" y="997"/>
      <point x="261" y="1179" type="curve" smooth="yes"/>
      <point x="261" y="1262"/>
      <point x="341" y="1296"/>
      <point x="413" y="1296" type="curve" smooth="yes"/>
      <point x="529" y="1296"/>
      <point x="594" y="1134"/>
      <point x="662" y="1134" type="curve" smooth="yes"/>
      <point x="687" y="1134"/>
      <point x="727" y="1150"/>
      <point x="727" y="1181" type="curve" smooth="yes"/>
      <point x="727" y="1331"/>
      <point x="529" y="1360"/>
      <point x="417" y="1360" type="curve" smooth="yes"/>
      <point x="293" y="1360"/>
      <point x="181" y="1285"/>
      <point x="181" y="1152" type="curve" smooth="yes"/>
      <point x="181" y="1125"/>
      <point x="185" y="1098"/>
    </contour>
  </outline>
</glyph>
<glyph name="copyright" format="1">
  <advance width="1507"/>
  <unicode hex="00A9"/>
  <outline>
    <contour>
      <point x="1350" y="627" type="curve" smooth="yes"/>
      <point x="1350" y="300"/>
      <point x="1092" y="41"/>
      <point x="772" y="41" type="curve" smooth="yes"/>
      <point x="413" y="41"/>
      <point x="162" y="314"/>
      <point x="162" y="666" type="curve" smooth="yes"/>
      <point x="162" y="982"/>
      <point x="404" y="1249"/>
      <point x="748" y="1249" type="curve" smooth="yes"/>
      <point x="1110" y="1249"/>
      <point x="1350" y="969"/>
    </contour>
    <contour>
      <point x="1435" y="646" type="curve" smooth="yes"/>
      <point x="1435" y="1041"/>
      <point x="1111" y="1314"/>
      <point x="754" y="1314" type="curve" smooth="yes"/>
      <point x="395" y="1314"/>
      <point x="73" y="1033"/>
      <point x="73" y="646" type="curve" smooth="yes"/>
      <point x="73" y="255"/>
      <point x="397" y="-23"/>
      <point x="753" y="-23" type="curve" smooth="yes"/>
      <point x="1130" y="-23"/>
      <point x="1435" y="258"/>
    </contour>
    <contour>
      <point x="1080" y="1080" type="line"/>
      <point x="1016" y="1080" type="line"/>
      <point x="1008" y="1060"/>
      <point x="1001" y="1054"/>
      <point x="989" y="1054" type="curve" smooth="yes"/>
      <point x="940" y="1054"/>
      <point x="870" y="1096"/>
      <point x="756" y="1096" type="curve"/>
      <point x="511" y="1081"/>
      <point x="310" y="901"/>
      <point x="310" y="647" type="curve" smooth="yes"/>
      <point x="310" y="388"/>
      <point x="505" y="205"/>
      <point x="763" y="205" type="curve" smooth="yes"/>
      <point x="904" y="205"/>
      <point x="1059" y="269"/>
      <point x="1114" y="376" type="curve"/>
      <point x="1107" y="382"/>
      <point x="1098" y="389"/>
      <point x="1088" y="392" type="curve"/>
      <point x="1002" y="322"/>
      <point x="932" y="282"/>
      <point x="801" y="282" type="curve" smooth="yes"/>
      <point x="594" y="282"/>
      <point x="471" y="424"/>
      <point x="471" y="678" type="curve" smooth="yes"/>
      <point x="471" y="901"/>
      <point x="594" y="1055"/>
      <point x="775" y="1055" type="curve" smooth="yes"/>
      <point x="933" y="1055"/>
      <point x="1022" y="972"/>
      <point x="1071" y="838" type="curve"/>
      <point x="1081" y="838"/>
      <point x="1089" y="838"/>
      <point x="1101" y="840" type="curve"/>
    </contour>
  </outline>
</glyph>
<glyph name="logicalnot" format="1">
  <advance width="1345"/>
  <unicode hex="00AC"/>
  <outline>
    <contour>
      <point x="141" y="893" type="line"/>
      <point x="129" y="851"/>
      <point x="109" y="819"/>
      <point x="109" y="773" type="curve"/>
      <point x="141" y="743"/>
      <point x="189" y="742"/>
      <point x="230" y="742" type="curve" smooth="yes"/>
      <point x="1043" y="742" type="line"/>
      <point x="1043" y="314" type="line"/>
      <point x="1086" y="306"/>
      <point x="1121" y="286"/>
      <point x="1167" y="286" type="curve"/>
      <point x="1197" y="316"/>
      <point x="1198" y="363"/>
      <point x="1198" y="403" type="curve" smooth="yes"/>
      <point x="1198" y="620" type="line" smooth="yes"/>
      <point x="1198" y="709"/>
      <point x="1196" y="799"/>
      <point x="1183" y="885" type="curve"/>
      <point x="1138" y="891"/>
      <point x="1093" y="895"/>
      <point x="1048" y="895" type="curve" smooth="yes"/>
      <point x="804" y="894"/>
      <point x="559" y="893"/>
      <point x="314" y="893" type="curve" smooth="yes"/>
    </contour>
  </outline>
</glyph>
<glyph name="ordmasculine" format="1">
  <advance width="791"/>
  <unicode hex="00BA"/>
  <outline>
    <contour>
      <point x="209" y="893" type="curve" smooth="yes"/>
      <point x="209" y="1040"/>
      <point x="283" y="1119"/>
      <point x="386" y="1119" type="curve" smooth="yes"/>
      <point x="525" y="1119"/>
      <point x="588" y="945"/>
      <point x="588" y="808" type="curve" smooth="yes"/>
      <point x="588" y="680"/>
      <point x="506" y="602"/>
      <point x="408" y="602" type="curve" smooth="yes"/>
      <point x="302" y="602"/>
      <point x="209" y="711"/>
    </contour>
    <contour>
      <point x="72" y="861" type="curve" smooth="yes"/>
      <point x="72" y="672"/>
      <point x="226" y="547"/>
      <point x="399" y="547" type="curve" smooth="yes"/>
      <point x="570" y="547"/>
      <point x="719" y="667"/>
      <point x="719" y="858" type="curve" smooth="yes"/>
      <point x="719" y="1048"/>
      <point x="571" y="1164"/>
      <point x="392" y="1164" type="curve" smooth="yes"/>
      <point x="225" y="1164"/>
      <point x="72" y="1043"/>
    </contour>
  </outline>
</glyph>
<glyph name="germandbls" format="1">
  <advance width="1200"/>
  <unicode hex="00DF"/>
  <outline>
    <contour>
      <point x="197" y="252" type="line" smooth="yes"/>
      <point x="197" y="217"/>
      <point x="193" y="186"/>
      <point x="188" y="156" type="curve" smooth="yes"/>
      <point x="173" y="75"/>
      <point x="80" y="85"/>
      <point x="39" y="52" type="curve"/>
      <point x="39" y="35"/>
      <point x="39" y="18"/>
      <point x="41" y="0" type="curve"/>
      <point x="500" y="0" type="line"/>
      <point x="502" y="17"/>
      <point x="502" y="34"/>
      <point x="502" y="50" type="curve"/>
      <point x="484" y="82"/>
      <point x="416" y="58"/>
      <point x="407" y="116" type="curve"/>
      <point x="387" y="147"/>
      <point x="383" y="189"/>
      <point x="383" y="249" type="curve" smooth="yes"/>
      <point x="383" y="866" type="line" smooth="yes"/>
      <point x="383" y="904"/>
      <point x="384" y="941"/>
      <point x="386" y="978" type="curve" smooth="yes"/>
      <point x="395" y="1151"/>
      <point x="472" y="1246"/>
      <point x="601" y="1246" type="curve" smooth="yes"/>
      <point x="729" y="1246"/>
      <point x="840" y="1165"/>
      <point x="840" y="1020" type="curve" smooth="yes"/>
      <point x="840" y="881"/>
      <point x="769" y="786"/>
      <point x="597" y="769" type="curve"/>
      <point x="589" y="752"/>
      <point x="584" y="730"/>
      <point x="584" y="707" type="curve"/>
      <point x="608" y="696"/>
      <point x="635" y="684"/>
      <point x="663" y="674" type="curve"/>
      <point x="843" y="632"/>
      <point x="936" y="497"/>
      <point x="936" y="309" type="curve" smooth="yes"/>
      <point x="936" y="166"/>
      <point x="866" y="59"/>
      <point x="792" y="59" type="curve" smooth="yes"/>
      <point x="772" y="59"/>
      <point x="753" y="64"/>
      <point x="745" y="73" type="curve"/>
      <point x="675" y="84"/>
      <point x="749" y="215"/>
      <point x="641" y="215" type="curve" smooth="yes"/>
      <point x="596" y="215"/>
      <point x="559" y="180"/>
      <point x="559" y="133" type="curve" smooth="yes"/>
      <point x="559" y="49"/>
      <point x="638" y="-17"/>
      <point x="764" y="-17" type="curve" smooth="yes"/>
      <point x="1001" y="-17"/>
      <point x="1123" y="185"/>
      <point x="1123" y="365" type="curve" smooth="yes"/>
      <point x="1123" y="547"/>
      <point x="989" y="713"/>
      <point x="764" y="741" type="curve"/>
      <point x="764" y="744" type="line"/>
      <point x="934" y="793"/>
      <point x="1021" y="875"/>
      <point x="1021" y="1026" type="curve" smooth="yes"/>
      <point x="1021" y="1205"/>
      <point x="850" y="1322"/>
      <point x="619" y="1322" type="curve" smooth="yes"/>
      <point x="494" y="1322"/>
      <point x="402" y="1287"/>
      <point x="330" y="1221" type="curve" smooth="yes"/>
      <point x="210" y="1111"/>
      <point x="227" y="966"/>
      <point x="185" y="862" type="curve"/>
      <point x="174" y="851"/>
      <point x="159" y="850"/>
      <point x="144" y="850" type="curve" smooth="yes"/>
      <point x="134" y="850" type="line" smooth="yes"/>
      <point x="110" y="850"/>
      <point x="106" y="837"/>
      <point x="106" y="821" type="curve" smooth="yes"/>
      <point x="106" y="813"/>
      <point x="107" y="803"/>
      <point x="107" y="795" type="curve"/>
      <point x="197" y="795" type="line"/>
    </contour>
  </outline>
</glyph>
<glyph name="eth" format="1">
  <advance width="1091"/>
  <unicode hex="00F0"/>
  <outline>
    <contour>
      <point x="946" y="1262" type="curve"/>
      <point x="941" y="1299"/>
      <point x="900" y="1306"/>
      <point x="863" y="1306" type="curve"/>
      <point x="693" y="1218" type="line"/>
      <point x="614" y="1292"/>
      <point x="516" y="1341"/>
      <point x="416" y="1380" type="curve"/>
      <point x="369" y="1347" type="line"/>
      <point x="444" y="1295"/>
      <point x="521" y="1236"/>
      <point x="581" y="1167" type="curve"/>
      <point x="517" y="1134"/>
      <point x="423" y="1108"/>
      <point x="373" y="1055" type="curve"/>
      <point x="379" y="1034"/>
      <point x="393" y="1015"/>
      <point x="412" y="1004" type="curve"/>
      <point x="485" y="1037"/>
      <point x="555" y="1074"/>
      <point x="629" y="1104" type="curve"/>
      <point x="689" y="1026"/>
      <point x="732" y="935"/>
      <point x="751" y="839" type="curve"/>
      <point x="748" y="837" type="line"/>
      <point x="686" y="890"/>
      <point x="602" y="926"/>
      <point x="520" y="926" type="curve" smooth="yes"/>
      <point x="248" y="926"/>
      <point x="82" y="701"/>
      <point x="82" y="443" type="curve" smooth="yes"/>
      <point x="82" y="187"/>
      <point x="285" y="-21"/>
      <point x="542" y="-21" type="curve" smooth="yes"/>
      <point x="836" y="-21"/>
      <point x="1007" y="233"/>
      <point x="1007" y="507" type="curve" smooth="yes"/>
      <point x="1007" y="745"/>
      <point x="920" y="988"/>
      <point x="751" y="1159" type="curve"/>
      <point x="798" y="1184"/>
      <point x="915" y="1224"/>
    </contour>
    <contour>
      <point x="282" y="490" type="curve" smooth="yes"/>
      <point x="282" y="654"/>
      <point x="333" y="849"/>
      <point x="532" y="849" type="curve" smooth="yes"/>
      <point x="643" y="849"/>
      <point x="761" y="742"/>
      <point x="792" y="638" type="curve" smooth="yes"/>
      <point x="809" y="578"/>
      <point x="810" y="491"/>
      <point x="810" y="428" type="curve" smooth="yes"/>
      <point x="810" y="262"/>
      <point x="748" y="57"/>
      <point x="548" y="57" type="curve" smooth="yes"/>
      <point x="353" y="57"/>
      <point x="282" y="337"/>
    </contour>
  </outline>
</glyph>
<glyph name="Lslash" format="1">
  <advance width="1294"/>
  <unicode hex="0141"/>
  <outline>
    <contour>
      <point x="513" y="624" type="line"/>
      <point x="740" y="716" type="line" smooth="yes"/>
      <point x="823" y="750"/>
      <point x="853" y="762"/>
      <point x="853" y="787" type="curve" smooth="yes"/>
      <point x="853" y="813"/>
      <point x="838" y="831"/>
      <point x="810" y="831" type="curve" smooth="yes"/>
      <point x="787" y="831"/>
      <point x="755" y="822"/>
      <point x="705" y="802" type="curve" smooth="yes"/>
      <point x="513" y="724" type="line"/>
      <point x="513" y="1044" type="line" smooth="yes"/>
      <point x="513" y="1158"/>
      <point x="748" y="1089"/>
      <point x="748" y="1157" type="curve" smooth="yes"/>
      <point x="748" y="1162"/>
      <point x="747" y="1169"/>
      <point x="744" y="1176" type="curve"/>
      <point x="74" y="1176" type="line"/>
      <point x="71" y="1166"/>
      <point x="70" y="1160"/>
      <point x="70" y="1159" type="curve" smooth="yes"/>
      <point x="119" y="1090"/>
      <point x="298" y="1147"/>
      <point x="298" y="1038" type="curve" smooth="yes"/>
      <point x="298" y="637" type="line"/>
      <point x="228" y="609" type="line" smooth="yes"/>
      <point x="145" y="576"/>
      <point x="118" y="558"/>
      <point x="118" y="534" type="curve" smooth="yes"/>
      <point x="118" y="509"/>
      <point x="137" y="491"/>
      <point x="157" y="491" type="curve" smooth="yes"/>
      <point x="178" y="490"/>
      <point x="209" y="502"/>
      <point x="265" y="524" type="curve" smooth="yes"/>
      <point x="298" y="537" type="line"/>
      <point x="298" y="142" type="line" smooth="yes"/>
      <point x="298" y="26"/>
      <point x="68" y="98"/>
      <point x="68" y="22" type="curve" smooth="yes"/>
      <point x="68" y="15"/>
      <point x="69" y="8"/>
      <point x="72" y="0" type="curve"/>
      <point x="908" y="0" type="line" smooth="yes"/>
      <point x="970" y="0"/>
      <point x="1022" y="-13"/>
      <point x="1067" y="-26" type="curve"/>
      <point x="1071" y="-26"/>
      <point x="1073" y="-24"/>
      <point x="1075" y="-20" type="curve"/>
      <point x="1103" y="341" type="line"/>
      <point x="1084" y="341"/>
      <point x="1082" y="346"/>
      <point x="1079" y="346" type="curve" smooth="yes"/>
      <point x="1053" y="346"/>
      <point x="1030" y="273"/>
      <point x="1014" y="207" type="curve" smooth="yes"/>
      <point x="985" y="92"/>
      <point x="950" y="70"/>
      <point x="864" y="67" type="curve" smooth="yes"/>
      <point x="558" y="56" type="line"/>
      <point x="523" y="56"/>
      <point x="513" y="95"/>
      <point x="513" y="136" type="curve" smooth="yes"/>
    </contour>
  </outline>
</glyph>
<glyph name="DZcaron" format="1">
  <advance width="2892"/>
  <unicode hex="01C4"/>
  <outline>
    <contour>
      <point x="2328" y="1449" type="curve"/>
      <point x="2394" y="1568"/>
      <point x="2470" y="1688"/>
      <point x="2521" y="1815" type="curve"/>
      <point x="2514" y="1826"/>
      <point x="2497" y="1828"/>
      <point x="2485" y="1828" type="curve"/>
      <point x="2413" y="1782"/>
      <point x="2313" y="1646"/>
      <point x="2256" y="1577" type="curve"/>
      <point x="2199" y="1638"/>
      <point x="2074" y="1791"/>
      <point x="2002" y="1828" type="curve"/>
      <point x="1990" y="1828"/>
      <point x="1973" y="1826"/>
      <point x="1966" y="1815" type="curve"/>
      <point x="1997" y="1738"/>
      <point x="2133" y="1477"/>
      <point x="2191" y="1429" type="curve"/>
      <point x="2237" y="1429"/>
      <point x="2283" y="1437"/>
    </contour>
    <contour>
      <point x="2816" y="357" type="line"/>
      <point x="2760" y="359" type="line"/>
      <point x="2717" y="315"/>
      <point x="2683" y="257"/>
      <point x="2654" y="203" type="curve" smooth="yes"/>
      <point x="2617" y="134"/>
      <point x="2586" y="104"/>
      <point x="2507" y="92" type="curve" smooth="yes"/>
      <point x="2403" y="76"/>
      <point x="2294" y="74"/>
      <point x="2187" y="74" type="curve" smooth="yes"/>
      <point x="2048" y="74" type="line" smooth="yes"/>
      <point x="2017" y="74"/>
      <point x="1987" y="80"/>
      <point x="1958" y="89" type="curve"/>
      <point x="1981" y="127"/>
      <point x="2006" y="162"/>
      <point x="2032" y="198" type="curve" smooth="yes"/>
      <point x="2797" y="1245" type="line"/>
      <point x="2798" y="1272" type="line" smooth="yes"/>
      <point x="2798" y="1283"/>
      <point x="2797" y="1297"/>
      <point x="2785" y="1302" type="curve"/>
      <point x="2456" y="1302"/>
      <point x="2127" y="1307"/>
      <point x="1799" y="1307" type="curve" smooth="yes"/>
      <point x="1767" y="1307" type="line"/>
      <point x="1740" y="975" type="line"/>
      <point x="1758" y="973"/>
      <point x="1775" y="972"/>
      <point x="1793" y="972" type="curve"/>
      <point x="1824" y="1016"/>
      <point x="1847" y="1065"/>
      <point x="1873" y="1112" type="curve" smooth="yes"/>
      <point x="1935" y="1224"/>
      <point x="2017" y="1225"/>
      <point x="2128" y="1225" type="curve" smooth="yes"/>
      <point x="2524" y="1225" type="line"/>
      <point x="2524" y="1225"/>
      <point x="2461" y="1134"/>
      <point x="2450" y="1119" type="curve" smooth="yes"/>
      <point x="1670" y="43" type="line"/>
      <point x="1674" y="0" type="line"/>
      <point x="2571" y="0" type="line" smooth="yes"/>
      <point x="2618" y="0"/>
      <point x="2666" y="-10"/>
      <point x="2715" y="-10" type="curve" smooth="yes"/>
      <point x="2756" y="-10" type="line"/>
    </contour>
    <contour>
      <point x="675" y="1225" type="line" smooth="yes"/>
      <point x="1094" y="1225"/>
      <point x="1274" y="954"/>
      <point x="1274" y="609" type="curve" smooth="yes"/>
      <point x="1274" y="352"/>
      <point x="1116" y="77"/>
      <point x="770" y="77" type="curve" smooth="yes"/>
      <point x="733" y="77"/>
      <point x="692" y="78"/>
      <point x="655" y="80" type="curve" smooth="yes"/>
      <point x="540" y="85"/>
      <point x="507" y="166"/>
      <point x="507" y="271" type="curve" smooth="yes"/>
      <point x="507" y="1225" type="line"/>
    </contour>
    <contour>
      <point x="292" y="219" type="line" smooth="yes"/>
      <point x="292" y="81"/>
      <point x="165" y="81"/>
      <point x="68" y="52" type="curve"/>
      <point x="70" y="0" type="line"/>
      <point x="789" y="0" type="line" smooth="yes"/>
      <point x="1267" y="0"/>
      <point x="1512" y="321"/>
      <point x="1512" y="658" type="curve" smooth="yes"/>
      <point x="1512" y="1130"/>
      <point x="1138" y="1302"/>
      <point x="662" y="1302" type="curve" smooth="yes"/>
      <point x="70" y="1302" type="line"/>
      <point x="68" y="1251" type="line"/>
      <point x="140" y="1226"/>
      <point x="267" y="1212"/>
      <point x="282" y="1131" type="curve" smooth="yes"/>
      <point x="288" y="1094"/>
      <point x="292" y="1053"/>
      <point x="292" y="1010" type="curve" smooth="yes"/>
    </contour>
  </outline>
</glyph>
<glyph name="dotlessj" format="1">
  <advance width="540"/>
  <unicode hex="0237"/>
  <outline>
    <contour>
      <point x="201" y="88" type="line"/>
      <point x="190" y="-136"/>
      <point x="163" y="-176"/>
      <point x="-1" y="-250" type="curve"/>
      <point x="14" y="-308" type="line"/>
      <point x="251" y="-282"/>
      <point x="387" y="-168"/>
      <point x="387" y="125" type="curve" smooth="yes"/>
      <point x="387" y="918" type="line"/>
      <point x="319" y="911" type="line"/>
      <point x="39" y="832" type="line"/>
      <point x="39" y="797" type="line"/>
      <point x="49" y="797"/>
      <point x="172" y="756"/>
      <point x="201" y="710" type="curve"/>
    </contour>
  </outline>
</glyph>
<glyph name="caron" format="1">
  <advance width="1032"/>
  <unicode hex="02C7"/>
  <outline>
    <contour>
      <point x="514" y="900" type="move" name="_top"/>
    </contour>
    <contour>
      <point x="588" y="1009" type="curve"/>
      <point x="654" y="1128"/>
      <point x="730" y="1248"/>
      <point x="781" y="1375" type="curve"/>
      <point x="774" y="1386"/>
      <point x="757" y="1388"/>
      <point x="745" y="1388" type="curve"/>
      <point x="673" y="1342"/>
      <point x="573" y="1206"/>
      <point x="516" y="1137" type="curve"/>
      <point x="459" y="1198"/>
      <point x="334" y="1351"/>
      <point x="262" y="1388" type="curve"/>
      <point x="250" y="1388"/>
      <point x="233" y="1386"/>
      <point x="226" y="1375" type="curve"/>
      <point x="257" y="1298"/>
      <point x="393" y="1037"/>
      <point x="451" y="989" type="curve"/>
      <point x="497" y="989"/>
      <point x="543" y="997"/>
    </contour>
  </outline>
</glyph>
<glyph name="uni030F" format="1">
  <advance width="968"/>
  <unicode hex="030F"/>
  <outline>
    <contour>
      <point x="506" y="900" type="move" name="_top"/>
    </contour>
    <contour>
      <point x="376" y="1341" type="curve"/>
      <point x="399" y="1294"/>
      <point x="629" y="990"/>
      <point x="669" y="956" type="curve"/>
      <point x="681" y="956"/>
      <point x="693" y="960"/>
      <point x="701" y="970" type="curve"/>
      <point x="693" y="1018"/>
      <point x="564" y="1335"/>
      <point x="527" y="1384" type="curve"/>
      <point x="475" y="1384"/>
      <point x="421" y="1367"/>
    </contour>
    <contour>
      <point x="72" y="1342" type="curve"/>
      <point x="94" y="1296"/>
      <point x="314" y="980"/>
      <point x="343" y="956" type="curve"/>
      <point x="356" y="956"/>
      <point x="370" y="961"/>
      <point x="377" y="972" type="curve"/>
      <point x="373" y="1000"/>
      <point x="250" y="1352"/>
      <point x="223" y="1384" type="curve"/>
      <point x="171" y="1384"/>
      <point x="118" y="1366"/>
    </contour>
  </outline>
</glyph>
<glyph name="endash" format="1">
  <advance width="929"/>
  <unicode hex="2013"/>
  <outline>
    <contour>
      <point x="40" y="505" type="curve"/>
      <point x="40" y="475"/>
      <point x="63" y="435"/>
      <point x="98" y="435" type="curve" smooth="yes"/>
      <point x="710" y="435" type="line" smooth="yes"/>
      <point x="770" y="435"/>
      <point x="833" y="437"/>
      <point x="889" y="453" type="curve"/>
      <point x="889" y="492"/>
      <point x="866" y="512"/>
      <point x="831" y="525" type="curve"/>
      <point x="268" y="525" type="line" smooth="yes"/>
      <point x="192" y="525"/>
      <point x="114" y="524"/>
    </contour>
  </outline>
</glyph>
<glyph name="quoteright" format="1">
  <advance width="544"/>
  <unicode hex="2019"/>
  <outline>
    <contour>
      <point x="165" y="793" type="curve"/>
      <point x="338" y="825"/>
      <point x="437" y="978"/>
      <point x="437" y="1123" type="curve" smooth="yes"/>
      <point x="437" y="1244"/>
      <point x="365" y="1328"/>
      <point x="257" y="1328" type="curve" smooth="yes"/>
      <point x="174" y="1328"/>
      <point x="117" y="1271"/>
      <point x="117" y="1199" type="curve" smooth="yes"/>
      <point x="117" y="1137"/>
      <point x="152" y="1097"/>
      <point x="222" y="1085" type="curve" smooth="yes"/>
      <point x="264" y="1078"/>
      <point x="289" y="1060"/>
      <point x="308" y="1033" type="curve"/>
      <point x="308" y="928"/>
      <point x="214" y="898"/>
      <point x="129" y="850" type="curve"/>
      <point x="135" y="824"/>
      <point x="149" y="807"/>
    </contour>
  </outline>
</glyph>
<glyph name="quotedblbase" format="1">
  <advance width="889"/>
  <unicode hex="201E"/>
  <outline>
    <contour>
      <point x="135" y="-235" type="line"/>
      <point x="293" y="-207"/>
      <point x="407" y="-66"/>
      <point x="407" y="94" type="curve" smooth="yes"/>
      <point x="407" y="203"/>
      <point x="344" y="300"/>
      <point x="227" y="300" type="curve" smooth="yes"/>
      <point x="151" y="300"/>
      <point x="87" y="249"/>
      <point x="87" y="170" type="curve" smooth="yes"/>
      <point x="87" y="35"/>
      <point x="221" y="86"/>
      <point x="278" y="4" type="curve"/>
      <point x="278" y="-101"/>
      <point x="176" y="-136"/>
      <point x="99" y="-179" type="curve"/>
    </contour>
    <contour>
      <point x="526" y="-235" type="line"/>
      <point x="684" y="-207"/>
      <point x="798" y="-66"/>
      <point x="798" y="94" type="curve" smooth="yes"/>
      <point x="798" y="203"/>
      <point x="735" y="300"/>
      <point x="618" y="300" type="curve" smooth="yes"/>
      <point x="542" y="300"/>
      <point x="478" y="249"/>
      <point x="478" y="170" type="curve" smooth="yes"/>
      <point x="478" y="35"/>
      <point x="612" y="86"/>
      <point x="669" y="4" type="curve"/>
      <point x="669" y="-101"/>
      <point x="567" y="-136"/>
      <point x="490" y="-179" type="curve"/>
    </contour>
  </outline>
</glyph>
<glyph name="minus" format="1">
  <advance width="1145"/>
  <unicode hex="2212"/>
  <outline>
    <contour>
      <point x="135" y="615" type="curve"/>
      <point x="135" y="566"/>
      <point x="150" y="532"/>
      <point x="192" y="505" type="curve"/>
      <point x="803" y="505" type="line" smooth="yes"/>
      <point x="873" y="505"/>
      <point x="944" y="507"/>
      <point x="1011" y="523" type="curve"/>
      <point x="1011" y="571"/>
      <point x="994" y="608"/>
      <point x="953" y="635" type="curve"/>
      <point x="289" y="635" type="line" smooth="yes"/>
      <point x="239" y="635"/>
      <point x="181" y="635"/>
    </contour>
  </outline>
</glyph>
<glyph name="uniFB00" format="1">
  <advance width="1240"/>
  <unicode hex="FB00"/>
  <outline>
    <contour>
      <point x="62" y="809" type="line"/>
      <point x="205" y="809" type="line"/>
      <point x="205" y="110" type="line" smooth="yes"/>
      <point x="205" y="27"/>
      <point x="45" y="66"/>
      <point x="45" y="17" type="curve" smooth="yes"/>
      <point x="45" y="16"/>
      <point x="46" y="10"/>
      <point x="49" y="0" type="curve"/>
      <point x="585" y="0" type="line"/>
      <point x="588" y="10"/>
      <point x="589" y="16"/>
      <point x="589" y="17" type="curve" smooth="yes"/>
      <point x="589" y="66"/>
      <point x="411" y="27"/>
      <point x="411" y="110" type="curve" smooth="yes"/>
      <point x="411" y="809" type="line"/>
      <point x="785" y="809" type="line"/>
      <point x="785" y="110" type="line" smooth="yes"/>
      <point x="785" y="27"/>
      <point x="625" y="66"/>
      <point x="625" y="17" type="curve" smooth="yes"/>
      <point x="625" y="16"/>
      <point x="626" y="10"/>
      <point x="629" y="0" type="curve"/>
      <point x="1165" y="0" type="line"/>
      <point x="1168" y="10"/>
      <point x="1169" y="16"/>
      <point x="1169" y="17" type="curve" smooth="yes"/>
      <point x="1169" y="66"/>
      <point x="991" y="27"/>
      <point x="991" y="110" type="curve" smooth="yes"/>
      <point x="991" y="809" type="line"/>
      <point x="1202" y="809" type="line"/>
      <point x="1202" y="868" type="line"/>
      <point x="991" y="868" type="line"/>
      <point x="991" y="947" type="line" smooth="yes"/>
      <point x="991" y="1223"/>
      <point x="1035" y="1256"/>
      <point x="1107" y="1256" type="curve" smooth="yes"/>
      <point x="1154" y="1256"/>
      <point x="1181" y="1248"/>
      <point x="1181" y="1217" type="curve" smooth="yes"/>
      <point x="1181" y="1198"/>
      <point x="1167" y="1177"/>
      <point x="1167" y="1150" type="curve" smooth="yes"/>
      <point x="1167" y="1105"/>
      <point x="1195" y="1068"/>
      <point x="1254" y="1068" type="curve" smooth="yes"/>
      <point x="1323" y="1068"/>
      <point x="1354" y="1112"/>
      <point x="1354" y="1164" type="curve" smooth="yes"/>
      <point x="1354" y="1263"/>
      <point x="1227" y="1297"/>
      <point x="1096" y="1297" type="curve" smooth="yes"/>
      <point x="1009" y="1297"/>
      <point x="921" y="1273"/>
      <point x="861" y="1208" type="curve"/>
      <point x="821" y="1272"/>
      <point x="685" y="1297"/>
      <point x="576" y="1297" type="curve" smooth="yes"/>
      <point x="420" y="1297"/>
      <point x="205" y="1225"/>
      <point x="205" y="965" type="curve" smooth="yes"/>
      <point x="205" y="868" type="line"/>
      <point x="62" y="868" type="line"/>
    </contour>
    <contour>
      <point x="785" y="868" type="line"/>
      <point x="411" y="868" type="line"/>
      <point x="411" y="947" type="line" smooth="yes"/>
      <point x="411" y="1223"/>
      <point x="516" y="1256"/>
      <point x="587" y="1256" type="curve" smooth="yes"/>
      <point x="635" y="1256"/>
      <point x="701" y="1246"/>
      <point x="701" y="1217" type="curve" smooth="yes"/>
      <point x="701" y="1198"/>
      <point x="687" y="1177"/>
      <point x="687" y="1150" type="curve" smooth="yes"/>
      <point x="687" y="1105"/>
      <point x="715" y="1068"/>
      <point x="774" y="1068" type="curve" smooth="yes"/>
      <point x="781" y="1068"/>
      <point x="788" y="1068"/>
      <point x="795" y="1069" type="curve"/>
      <point x="788" y="1040"/>
      <point x="785" y="1005"/>
      <point x="785" y="965" type="curve" smooth="yes"/>
    </contour>
  </outline>
</glyph>
<glyph name="c_k" format="1">
  <advance width="2041"/>
  <outline>
    <contour>
      <point x="715" y="774" type="curve" smooth="yes"/>
      <point x="715" y="746"/>
      <point x="695" y="721"/>
      <point x="695" y="691" type="curve" smooth="yes"/>
      <point x="695" y="638"/>
      <point x="731" y="604"/>
      <point x="783" y="604" type="curve" smooth="yes"/>
      <point x="841" y="604"/>
      <point x="892" y="647"/>
      <point x="892" y="707" type="curve" smooth="yes"/>
      <point x="892" y="789"/>
      <point x="813" y="897"/>
      <point x="813" y="1014" type="curve" smooth="yes"/>
      <point x="813" y="1161"/>
      <point x="921" y="1225"/>
      <point x="1050" y="1225" type="curve" smooth="yes"/>
      <point x="1114" y="1225" type="line"/>
      <point x="1114" y="120" type="line" smooth="yes"/>
      <point x="1114" y="43"/>
      <point x="941" y="55"/>
      <point x="941" y="12" type="curve" smooth="yes"/>
      <point x="941" y="8"/>
      <point x="943" y="4"/>
      <point x="944" y="0" type="curve"/>
      <point x="1468" y="0" type="line"/>
      <point x="1469" y="4"/>
      <point x="1472" y="10"/>
      <point x="1472" y="14" type="curve" smooth="yes"/>
      <point x="1472" y="60"/>
      <point x="1320" y="32"/>
      <point x="1320" y="116" type="curve" smooth="yes"/>
      <point x="1320" y="420" type="line"/>
      <point x="1385" y="420" type="line"/>
      <point x="1410" y="388"/>
      <point x="1648" y="87"/>
      <point x="1648" y="74" type="curve" smooth="yes"/>
      <point x="1648" y="24"/>
      <point x="1532" y="50"/>
      <point x="1531" y="12" type="curve"/>
      <point x="1536" y="0" type="line"/>
      <point x="2031" y="0" type="line"/>
      <point x="2032" y="4"/>
      <point x="2034" y="9"/>
      <point x="2034" y="13" type="curve" smooth="yes"/>
      <point x="2034" y="41"/>
      <point x="1882" y="64"/>
      <point x="1858" y="94" type="curve" smooth="yes"/>
      <point x="1524" y="522" type="line"/>
      <point x="1820" y="774" type="line" smooth="yes"/>
      <point x="1855" y="804"/>
      <point x="2005" y="831"/>
      <point x="2005" y="855" type="curve" smooth="yes"/>
      <point x="2005" y="859"/>
      <point x="2003" y="864"/>
      <point x="2002" y="868" type="curve"/>
      <point x="1608" y="868" type="line"/>
      <point x="1607" y="864"/>
      <point x="1605" y="859"/>
      <point x="1605" y="855" type="curve" smooth="yes"/>
      <point x="1605" y="813"/>
      <point x="1734" y="852"/>
      <point x="1734" y="789" type="curve"/>
      <point x="1732" y="778" type="line"/>
      <point x="1382" y="475" type="line"/>
      <point x="1320" y="475" type="line"/>
      <point x="1320" y="1298" type="line"/>
      <point x="1234" y="1315"/>
      <point x="1150" y="1329"/>
      <point x="1062" y="1329" type="curve" smooth="yes"/>
      <point x="898" y="1329"/>
      <point x="718" y="1282"/>
      <point x="718" y="1084" type="curve" smooth="yes"/>
      <point x="718" y="1009"/>
      <point x="740" y="935"/>
      <point x="768" y="866" type="curve"/>
      <point x="710" y="892"/>
      <point x="646" y="902"/>
      <point x="583" y="902" type="curve" smooth="yes"/>
      <point x="310" y="902"/>
      <point x="82" y="730"/>
      <point x="82" y="442" type="curve" smooth="yes"/>
      <point x="82" y="171"/>
      <point x="264" y="-17"/>
      <point x="536" y="-17" type="curve" smooth="yes"/>
      <point x="649" y="-17"/>
      <point x="771" y="11"/>
      <point x="856" y="90" type="curve"/>
      <point x="857" y="94"/>
      <point x="862" y="104"/>
      <point x="862" y="108" type="curve" smooth="yes"/>
      <point x="862" y="117"/>
      <point x="862" y="131"/>
      <point x="849" y="131" type="curve" smooth="yes"/>
      <point x="796" y="131"/>
      <point x="680" y="95"/>
      <point x="582" y="95" type="curve" smooth="yes"/>
      <point x="359" y="95"/>
      <point x="288" y="277"/>
      <point x="288" y="472" type="curve" smooth="yes"/>
      <point x="288" y="655"/>
      <point x="388" y="846"/>
      <point x="593" y="846" type="curve" smooth="yes"/>
      <point x="637" y="846"/>
      <point x="715" y="832"/>
    </contour>
  </outline>
</glyph>
<glyph name="ffi" format="1">
  <advance width="1786"/>
  <outline>
    <contour>
      <point x="904" y="1277" type="curve"/>
      <point x="840" y="1341"/>
      <point x="733" y="1374"/>
      <point x="607" y="1374" type="curve" smooth="yes"/>
      <point x="357" y="1374"/>
      <point x="212" y="1231"/>
      <point x="207" y="971" type="curve" smooth="yes"/>
      <point x="206" y="901"/>
      <point x="186" y="899"/>
      <point x="122" y="899" type="curve" smooth="yes"/>
      <point x="53" y="899" type="line"/>
      <point x="53" y="818" type="line"/>
      <point x="211" y="818" type="line"/>
      <point x="211" y="215" type="line" smooth="yes"/>
      <point x="211" y="103"/>
      <point x="155" y="60"/>
      <point x="46" y="50" type="curve"/>
      <point x="46" y="35"/>
      <point x="47" y="19"/>
      <point x="48" y="0" type="curve"/>
      <point x="574" y="0" type="line"/>
      <point x="575" y="19"/>
      <point x="575" y="35"/>
      <point x="575" y="50" type="curve"/>
      <point x="425" y="56"/>
      <point x="397" y="121"/>
      <point x="397" y="259" type="curve" smooth="yes"/>
      <point x="397" y="818" type="line"/>
      <point x="780" y="818" type="line"/>
      <point x="780" y="215" type="line" smooth="yes"/>
      <point x="780" y="115"/>
      <point x="734" y="58"/>
      <point x="635" y="50" type="curve"/>
      <point x="635" y="35"/>
      <point x="636" y="19"/>
      <point x="637" y="0" type="curve"/>
      <point x="1163" y="0" type="line"/>
      <point x="1164" y="19"/>
      <point x="1164" y="35"/>
      <point x="1164" y="50" type="curve"/>
      <point x="1003" y="57"/>
      <point x="966" y="109"/>
      <point x="966" y="259" type="curve" smooth="yes"/>
      <point x="965" y="818" type="line"/>
      <point x="1392" y="818" type="line"/>
      <point x="1392" y="818"/>
      <point x="1404" y="772"/>
      <point x="1404" y="713" type="curve" smooth="yes"/>
      <point x="1404" y="181" type="line" smooth="yes"/>
      <point x="1404" y="83"/>
      <point x="1285" y="74"/>
      <point x="1240" y="50" type="curve"/>
      <point x="1240" y="34"/>
      <point x="1240" y="18"/>
      <point x="1242" y="0" type="curve"/>
      <point x="1738" y="0" type="line"/>
      <point x="1739" y="17"/>
      <point x="1739" y="33"/>
      <point x="1739" y="50" type="curve"/>
      <point x="1711" y="71"/>
      <point x="1612" y="68"/>
      <point x="1600" y="135" type="curve"/>
      <point x="1600" y="159"/>
      <point x="1600" y="188"/>
      <point x="1590" y="220" type="curve" smooth="yes"/>
      <point x="1590" y="905" type="line"/>
      <point x="1529" y="899" type="line"/>
      <point x="965" y="899" type="line"/>
      <point x="965" y="1021" type="line" smooth="yes"/>
      <point x="965" y="1249"/>
      <point x="1033" y="1302"/>
      <point x="1182" y="1302" type="curve" smooth="yes"/>
      <point x="1412" y="1302"/>
      <point x="1369" y="1124"/>
      <point x="1489" y="1124" type="curve" smooth="yes"/>
      <point x="1571" y="1124"/>
      <point x="1597" y="1182"/>
      <point x="1597" y="1222" type="curve" smooth="yes"/>
      <point x="1597" y="1354"/>
      <point x="1408" y="1375"/>
      <point x="1225" y="1375" type="curve" smooth="yes"/>
      <point x="1089" y="1375"/>
      <point x="981" y="1341"/>
    </contour>
    <contour>
      <point x="397" y="899" type="line"/>
      <point x="397" y="1021" type="line" smooth="yes"/>
      <point x="397" y="1249"/>
      <point x="450" y="1302"/>
      <point x="564" y="1302" type="curve" smooth="yes"/>
      <point x="710" y="1302"/>
      <point x="776" y="1226"/>
      <point x="812" y="1161" type="curve"/>
      <point x="785" y="1071"/>
      <point x="780" y="1028"/>
      <point x="780" y="899" type="curve"/>
    </contour>
  </outline>
</glyph>
<glyph name="fl" format="1">
  <advance width="1219"/>
  <outline>
    <contour>
      <point x="818" y="126" type="line" smooth="yes"/>
      <point x="818" y="31"/>
      <point x="634" y="73"/>
      <point x="634" y="17" type="curve" smooth="yes"/>
      <point x="634" y="10"/>
      <point x="635" y="8"/>
      <point x="638" y="0" type="curve"/>
      <point x="1199" y="0" type="line"/>
      <point x="1202" y="6"/>
      <point x="1203" y="12"/>
      <point x="1203" y="18" type="curve" smooth="yes"/>
      <point x="1203" y="66"/>
      <point x="1025" y="36"/>
      <point x="1025" y="120" type="curve" smooth="yes"/>
      <point x="1025" y="622" type="line" smooth="yes"/>
      <point x="1025" y="769"/>
      <point x="1026" y="936"/>
      <point x="1026" y="1123" type="curve" smooth="yes"/>
      <point x="1026" y="1213"/>
      <point x="981" y="1311"/>
      <point x="616" y="1311" type="curve" smooth="yes"/>
      <point x="416" y="1311"/>
      <point x="205" y="1233"/>
      <point x="205" y="965" type="curve" smooth="yes"/>
      <point x="205" y="868" type="line"/>
      <point x="62" y="868" type="line"/>
      <point x="62" y="809" type="line"/>
      <point x="205" y="809" type="line"/>
      <point x="205" y="110" type="line" smooth="yes"/>
      <point x="205" y="27"/>
      <point x="45" y="66"/>
      <point x="45" y="17" type="curve" smooth="yes"/>
      <point x="45" y="16"/>
      <point x="46" y="10"/>
      <point x="49" y="0" type="curve"/>
      <point x="585" y="0" type="line"/>
      <point x="588" y="10"/>
      <point x="589" y="16"/>
      <point x="589" y="17" type="curve" smooth="yes"/>
      <point x="589" y="66"/>
      <point x="411" y="27"/>
      <point x="411" y="110" type="curve" smooth="yes"/>
      <point x="411" y="809" type="line"/>
      <point x="817" y="809" type="line"/>
    </contour>
    <contour>
      <point x="817" y="868" type="curve"/>
      <point x="411" y="868" type="line"/>
      <point x="411" y="947" type="line" smooth="yes"/>
      <point x="411" y="1223"/>
      <point x="528" y="1256"/>
      <point x="627" y="1256" type="curve" smooth="yes"/>
      <point x="796" y="1256"/>
      <point x="821" y="1208"/>
      <point x="821" y="1075" type="curve" smooth="yes"/>
      <point x="821" y="1021"/>
      <point x="817" y="953"/>
    </contour>
  </outline>
</glyph>
<glyph name="gcedilla" format="1">
  <advance width="999"/>
  <outline>
    <contour>
      <point x="592" y="1163" type="curve"/>
      <point x="592" y="1244"/>
      <point x="535" y="1311"/>
      <point x="426" y="1311" type="curve"/>
      <point x="426" y="1439"/>
      <point x="551" y="1412"/>
      <point x="551" y="1464" type="curve" smooth="yes"/>
      <point x="551" y="1495"/>
      <point x="532" y="1502"/>
      <point x="509" y="1502" type="curve" smooth="yes"/>
      <point x="425" y="1502"/>
      <point x="273" y="1418"/>
      <point x="273" y="1237" type="curve" smooth="yes"/>
      <point x="273" y="1063"/>
      <point x="354" y="1015"/>
      <point x="439" y="1015" type="curve" smooth="yes"/>
      <point x="531" y="1015"/>
      <point x="592" y="1087"/>
    </contour>
    <component base="g" xOffset="3"/>
  </outline>
</glyph>
